<svg xmlns="http://www.w3.org/2000/svg" viewBox="0 0 727.37 727.28"><defs><style>.cls-1{fill:#282828;}.cls-2{fill:#68c6e6;}</style></defs><g id="레이어_2" data-name="레이어 2"><g id="레이어_1-2" data-name="레이어 1"><path class="cls-1" d="M725.56,147.65C713,60.42,643.47.1,555.33.05Q365.16-.07,175,.11A182.2,182.2,0,0,0,147.34,2C61.37,15.12.58,84.86.29,171.79Q-.37,363,.29,554.29c.12,46.3,16.36,86.78,48.51,120.26,33.55,34.93,75.05,52.3,123.38,52.56,64,.33,128,.08,192,.08s128,.09,192,0c22,0,43.41-3.46,63.93-11.73,65.36-26.34,107.2-89.73,107.28-163.32q.19-189.12,0-378.23A185.14,185.14,0,0,0,725.56,147.65Z"/><path class="cls-2" d="M415.21,146.32v124.3H280.11V386H144.8V582.41H584.31V146.32ZM279.9,548.41H178.8V420H279.9Zm135.31,0H314.11V304.62h101.1Zm135.1,0H449.21V180.32h101.1Z"/><circle class="cls-2" cx="210.32" cy="212.12" r="67.25" transform="translate(-65.17 96.63) rotate(-22.5)"/></g></g></svg>